<mxfile host="app.diagrams.net" modified="2023-11-22T10:50:04.568Z" agent="Mozilla/5.0 (Macintosh; Intel Mac OS X 10.15; rv:120.0) Gecko/20100101 Firefox/120.0" etag="wyRVXNyokEx-2wB199QX" version="22.1.3" type="device">
  <diagram name="Page-1" id="TKSqWwXPQHPR2OBwMUNJ">
    <mxGraphModel dx="1306" dy="751" grid="1" gridSize="10" guides="1" tooltips="1" connect="1" arrows="1" fold="1" page="1" pageScale="1" pageWidth="1654" pageHeight="2336" math="0" shadow="0">
      <root>
        <mxCell id="0" />
        <mxCell id="1" parent="0" />
        <mxCell id="ECrpxMbHAIeIIkF7rPn1-1" value="&lt;font style=&quot;font-size: 18px;&quot;&gt;Available&lt;/font&gt;" style="rounded=1;whiteSpace=wrap;html=1;" vertex="1" parent="1">
          <mxGeometry x="340" y="180" width="120" height="60" as="geometry" />
        </mxCell>
        <mxCell id="ECrpxMbHAIeIIkF7rPn1-2" value="" style="endArrow=none;html=1;rounded=0;exitX=0;exitY=0.75;exitDx=0;exitDy=0;entryX=1;entryY=0.75;entryDx=0;entryDy=0;" edge="1" parent="1" source="ECrpxMbHAIeIIkF7rPn1-1" target="ECrpxMbHAIeIIkF7rPn1-1">
          <mxGeometry width="50" height="50" relative="1" as="geometry">
            <mxPoint x="640" y="410" as="sourcePoint" />
            <mxPoint x="690" y="360" as="targetPoint" />
          </mxGeometry>
        </mxCell>
        <mxCell id="ECrpxMbHAIeIIkF7rPn1-30" value="" style="edgeStyle=orthogonalEdgeStyle;rounded=0;orthogonalLoop=1;jettySize=auto;html=1;" edge="1" parent="1" source="ECrpxMbHAIeIIkF7rPn1-3" target="ECrpxMbHAIeIIkF7rPn1-28">
          <mxGeometry relative="1" as="geometry" />
        </mxCell>
        <mxCell id="ECrpxMbHAIeIIkF7rPn1-3" value="&lt;font style=&quot;font-size: 18px;&quot;&gt;In Flight&lt;/font&gt;" style="rounded=1;whiteSpace=wrap;html=1;" vertex="1" parent="1">
          <mxGeometry x="325" y="570" width="150" height="60" as="geometry" />
        </mxCell>
        <mxCell id="ECrpxMbHAIeIIkF7rPn1-4" value="" style="endArrow=none;html=1;rounded=0;exitX=0;exitY=0.75;exitDx=0;exitDy=0;entryX=1;entryY=0.75;entryDx=0;entryDy=0;" edge="1" parent="1" source="ECrpxMbHAIeIIkF7rPn1-3" target="ECrpxMbHAIeIIkF7rPn1-3">
          <mxGeometry width="50" height="50" relative="1" as="geometry">
            <mxPoint x="650" y="420" as="sourcePoint" />
            <mxPoint x="700" y="370" as="targetPoint" />
          </mxGeometry>
        </mxCell>
        <mxCell id="ECrpxMbHAIeIIkF7rPn1-5" value="&lt;font style=&quot;font-size: 18px;&quot;&gt;Cancelled&lt;/font&gt;" style="rounded=1;whiteSpace=wrap;html=1;" vertex="1" parent="1">
          <mxGeometry x="600" y="280" width="120" height="60" as="geometry" />
        </mxCell>
        <mxCell id="ECrpxMbHAIeIIkF7rPn1-6" value="" style="endArrow=none;html=1;rounded=0;exitX=0;exitY=0.75;exitDx=0;exitDy=0;entryX=1;entryY=0.75;entryDx=0;entryDy=0;" edge="1" parent="1" source="ECrpxMbHAIeIIkF7rPn1-5" target="ECrpxMbHAIeIIkF7rPn1-5">
          <mxGeometry width="50" height="50" relative="1" as="geometry">
            <mxPoint x="660" y="430" as="sourcePoint" />
            <mxPoint x="710" y="380" as="targetPoint" />
          </mxGeometry>
        </mxCell>
        <mxCell id="ECrpxMbHAIeIIkF7rPn1-7" value="&lt;font style=&quot;font-size: 18px;&quot;&gt;Purchased&lt;/font&gt;" style="rounded=1;whiteSpace=wrap;html=1;" vertex="1" parent="1">
          <mxGeometry x="340" y="400" width="120" height="60" as="geometry" />
        </mxCell>
        <mxCell id="ECrpxMbHAIeIIkF7rPn1-8" value="" style="endArrow=none;html=1;rounded=0;exitX=0;exitY=0.75;exitDx=0;exitDy=0;entryX=1;entryY=0.75;entryDx=0;entryDy=0;" edge="1" parent="1" source="ECrpxMbHAIeIIkF7rPn1-7" target="ECrpxMbHAIeIIkF7rPn1-7">
          <mxGeometry width="50" height="50" relative="1" as="geometry">
            <mxPoint x="670" y="440" as="sourcePoint" />
            <mxPoint x="720" y="390" as="targetPoint" />
          </mxGeometry>
        </mxCell>
        <mxCell id="ECrpxMbHAIeIIkF7rPn1-11" value="" style="shape=waypoint;sketch=0;fillStyle=solid;size=6;pointerEvents=1;points=[];fillColor=none;resizable=0;rotatable=0;perimeter=centerPerimeter;snapToPoint=1;strokeWidth=5;" vertex="1" parent="1">
          <mxGeometry x="390" y="70" width="20" height="20" as="geometry" />
        </mxCell>
        <mxCell id="ECrpxMbHAIeIIkF7rPn1-12" value="" style="endArrow=classic;html=1;rounded=0;exitX=0.4;exitY=1.1;exitDx=0;exitDy=0;exitPerimeter=0;entryX=0.5;entryY=0;entryDx=0;entryDy=0;" edge="1" parent="1" source="ECrpxMbHAIeIIkF7rPn1-11" target="ECrpxMbHAIeIIkF7rPn1-1">
          <mxGeometry width="50" height="50" relative="1" as="geometry">
            <mxPoint x="470" y="110" as="sourcePoint" />
            <mxPoint x="520" y="60" as="targetPoint" />
          </mxGeometry>
        </mxCell>
        <mxCell id="ECrpxMbHAIeIIkF7rPn1-13" value="" style="endArrow=classic;html=1;rounded=0;exitX=0.5;exitY=1;exitDx=0;exitDy=0;entryX=0.5;entryY=0;entryDx=0;entryDy=0;" edge="1" parent="1" source="ECrpxMbHAIeIIkF7rPn1-1" target="ECrpxMbHAIeIIkF7rPn1-7">
          <mxGeometry width="50" height="50" relative="1" as="geometry">
            <mxPoint x="410" y="90" as="sourcePoint" />
            <mxPoint x="410" y="190" as="targetPoint" />
          </mxGeometry>
        </mxCell>
        <mxCell id="ECrpxMbHAIeIIkF7rPn1-14" value="&lt;font style=&quot;font-size: 18px;&quot;&gt;payment successful&lt;/font&gt;" style="text;html=1;strokeColor=none;fillColor=none;align=center;verticalAlign=middle;whiteSpace=wrap;rounded=0;" vertex="1" parent="1">
          <mxGeometry x="200" y="270" width="200" height="30" as="geometry" />
        </mxCell>
        <mxCell id="ECrpxMbHAIeIIkF7rPn1-15" value="" style="curved=1;endArrow=classic;html=1;rounded=0;entryX=0.5;entryY=0;entryDx=0;entryDy=0;exitX=1;exitY=0.5;exitDx=0;exitDy=0;" edge="1" parent="1" source="ECrpxMbHAIeIIkF7rPn1-1" target="ECrpxMbHAIeIIkF7rPn1-5">
          <mxGeometry width="50" height="50" relative="1" as="geometry">
            <mxPoint x="460" y="330" as="sourcePoint" />
            <mxPoint x="690" y="360" as="targetPoint" />
            <Array as="points">
              <mxPoint x="590" y="210" />
            </Array>
          </mxGeometry>
        </mxCell>
        <mxCell id="ECrpxMbHAIeIIkF7rPn1-16" value="" style="curved=1;endArrow=classic;html=1;rounded=0;entryX=0.5;entryY=1;entryDx=0;entryDy=0;exitX=1;exitY=0.5;exitDx=0;exitDy=0;" edge="1" parent="1" source="ECrpxMbHAIeIIkF7rPn1-7" target="ECrpxMbHAIeIIkF7rPn1-5">
          <mxGeometry width="50" height="50" relative="1" as="geometry">
            <mxPoint x="460" y="440" as="sourcePoint" />
            <mxPoint x="600" y="345" as="targetPoint" />
            <Array as="points">
              <mxPoint x="610" y="420" />
            </Array>
          </mxGeometry>
        </mxCell>
        <mxCell id="ECrpxMbHAIeIIkF7rPn1-17" value="&lt;div&gt;&lt;font style=&quot;font-size: 18px;&quot;&gt;payment declined or &lt;br&gt;&lt;/font&gt;&lt;/div&gt;&lt;div&gt;&lt;font style=&quot;font-size: 18px;&quot;&gt;User request&lt;br&gt;&lt;/font&gt;&lt;/div&gt;" style="text;whiteSpace=wrap;html=1;" vertex="1" parent="1">
          <mxGeometry x="550" y="170" width="220" height="50" as="geometry" />
        </mxCell>
        <mxCell id="ECrpxMbHAIeIIkF7rPn1-19" value="&lt;font style=&quot;font-size: 18px;&quot;&gt;flight is complete&lt;/font&gt;" style="text;whiteSpace=wrap;html=1;" vertex="1" parent="1">
          <mxGeometry x="510" y="600" width="160" height="50" as="geometry" />
        </mxCell>
        <mxCell id="ECrpxMbHAIeIIkF7rPn1-22" value="&lt;div&gt;&lt;font style=&quot;font-size: 18px;&quot;&gt;payment declined or &lt;br&gt;&lt;/font&gt;&lt;/div&gt;&lt;div&gt;&lt;font style=&quot;font-size: 18px;&quot;&gt;user request or&lt;/font&gt;&lt;/div&gt;&lt;div&gt;&lt;font style=&quot;font-size: 18px;&quot;&gt;flight is cancelled&lt;br&gt;&lt;/font&gt;&lt;/div&gt;" style="text;whiteSpace=wrap;html=1;" vertex="1" parent="1">
          <mxGeometry x="600" y="390" width="220" height="70" as="geometry" />
        </mxCell>
        <mxCell id="ECrpxMbHAIeIIkF7rPn1-24" value="" style="endArrow=classic;html=1;rounded=0;exitX=0.5;exitY=1;exitDx=0;exitDy=0;entryX=0.5;entryY=0;entryDx=0;entryDy=0;" edge="1" parent="1" source="ECrpxMbHAIeIIkF7rPn1-7" target="ECrpxMbHAIeIIkF7rPn1-3">
          <mxGeometry width="50" height="50" relative="1" as="geometry">
            <mxPoint x="640" y="410" as="sourcePoint" />
            <mxPoint x="690" y="360" as="targetPoint" />
          </mxGeometry>
        </mxCell>
        <mxCell id="ECrpxMbHAIeIIkF7rPn1-28" value="&lt;font style=&quot;font-size: 18px;&quot;&gt;Archive&lt;/font&gt;" style="rounded=1;whiteSpace=wrap;html=1;" vertex="1" parent="1">
          <mxGeometry x="680" y="570" width="120" height="60" as="geometry" />
        </mxCell>
        <mxCell id="ECrpxMbHAIeIIkF7rPn1-29" value="" style="endArrow=none;html=1;rounded=0;exitX=0;exitY=0.75;exitDx=0;exitDy=0;entryX=1;entryY=0.75;entryDx=0;entryDy=0;" edge="1" parent="1" source="ECrpxMbHAIeIIkF7rPn1-28" target="ECrpxMbHAIeIIkF7rPn1-28">
          <mxGeometry width="50" height="50" relative="1" as="geometry">
            <mxPoint x="890" y="620" as="sourcePoint" />
            <mxPoint x="940" y="570" as="targetPoint" />
          </mxGeometry>
        </mxCell>
        <mxCell id="ECrpxMbHAIeIIkF7rPn1-31" value="&lt;font style=&quot;font-size: 18px;&quot;&gt;user boards the plane&lt;/font&gt;" style="text;whiteSpace=wrap;html=1;" vertex="1" parent="1">
          <mxGeometry x="210" y="500" width="190" height="50" as="geometry" />
        </mxCell>
      </root>
    </mxGraphModel>
  </diagram>
</mxfile>
